<svg id="visual" viewBox="0 0 900 600" width="900" height="600" xmlns="http://www.w3.org/2000/svg" xmlns:xlink="http://www.w3.org/1999/xlink" version="1.1"><rect x="0" y="0" width="900" height="600" fill="#086059"></rect><path d="M0 48L21.5 65C43 82 86 116 128.8 132.5C171.7 149 214.3 148 257.2 154C300 160 343 173 385.8 167.8C428.7 162.7 471.3 139.3 514.2 133C557 126.7 600 137.3 642.8 141.2C685.7 145 728.3 142 771.2 148C814 154 857 169 878.5 176.5L900 184L900 0L878.5 0C857 0 814 0 771.2 0C728.3 0 685.7 0 642.8 0C600 0 557 0 514.2 0C471.3 0 428.7 0 385.8 0C343 0 300 0 257.2 0C214.3 0 171.7 0 128.8 0C86 0 43 0 21.5 0L0 0Z" fill="#FFF" stroke-linecap="round" stroke-linejoin="miter"></path></svg>