<svg id="visual" viewBox="0 0 900 600" width="900" height="600" xmlns="http://www.w3.org/2000/svg" xmlns:xlink="http://www.w3.org/1999/xlink" version="1.1"><g><g transform="translate(763 39)"><path d="M0 -74.3L58.1 -46.3L72.5 16.5L32.2 67L-32.2 67L-72.5 16.5L-58.1 -46.3Z" fill="none" stroke="#0C766F" stroke-width="5"></path></g><g transform="translate(449 588)"><path d="M0 -39L30.5 -24.3L38 8.7L16.9 35.1L-16.9 35.1L-38 8.7L-30.5 -24.3Z" fill="none" stroke="#0C766F" stroke-width="5"></path></g><g transform="translate(330 250)"><path d="M0 -39L30.5 -24.3L38 8.7L16.9 35.1L-16.9 35.1L-38 8.7L-30.5 -24.3Z" fill="none" stroke="#0C766F" stroke-width="5"></path></g><g transform="translate(854 169)"><path d="M0 -55L43 -34.3L53.6 12.2L23.9 49.6L-23.9 49.6L-53.6 12.2L-43 -34.3Z" stroke="#0C766F" fill="none" stroke-width="5"></path></g><g transform="translate(420 371)"><path d="M0 -34L26.6 -21.2L33.1 7.6L14.8 30.6L-14.8 30.6L-33.1 7.6L-26.6 -21.2Z" stroke="#0C766F" fill="none" stroke-width="5"></path></g><g transform="translate(608 185)"><path d="M0 -61L47.7 -38L59.5 13.6L26.5 55L-26.5 55L-59.5 13.6L-47.7 -38Z" stroke="#0C766F" fill="none" stroke-width="5"></path></g><g transform="translate(146 137)"><path d="M0 -42L32.8 -26.2L40.9 9.3L18.2 37.8L-18.2 37.8L-40.9 9.3L-32.8 -26.2Z" stroke="#0C766F" fill="none" stroke-width="5"></path></g><g transform="translate(784 529)"><path d="M0 -59L46.1 -36.8L57.5 13.1L25.6 53.2L-25.6 53.2L-57.5 13.1L-46.1 -36.8Z" stroke="#0C766F" fill="none" stroke-width="5"></path></g><g transform="translate(103 572)"><path d="M0 -58L45.3 -36.2L56.5 12.9L25.2 52.3L-25.2 52.3L-56.5 12.9L-45.3 -36.2Z" stroke="#0C766F" fill="none" stroke-width="5"></path></g><g transform="translate(254 490)"><path d="M0 -62L48.5 -38.7L60.4 13.8L26.9 55.9L-26.9 55.9L-60.4 13.8L-48.5 -38.7Z" stroke="#0C766F" fill="none" stroke-width="5"></path></g><g transform="translate(728 388)"><path d="M0 -37L28.9 -23.1L36.1 8.2L16.1 33.3L-16.1 33.3L-36.1 8.2L-28.9 -23.1Z" stroke="#0C766F" fill="none" stroke-width="5"></path></g><g transform="translate(448 147)"><path d="M0 -37L28.9 -23.1L36.1 8.2L16.1 33.3L-16.1 33.3L-36.1 8.2L-28.9 -23.1Z" stroke="#0C766F" fill="none" stroke-width="5"></path></g><g transform="translate(25 298)"><path d="M0 -69L53.9 -43L67.3 15.4L29.9 62.2L-29.9 62.2L-67.3 15.4L-53.9 -43Z" stroke="#0C766F" fill="none" stroke-width="5"></path></g><g transform="translate(233 14)"><path d="M0 -62L48.5 -38.7L60.4 13.8L26.9 55.9L-26.9 55.9L-60.4 13.8L-48.5 -38.7Z" stroke="#0C766F" fill="none" stroke-width="5"></path></g><g transform="translate(572 449)"><path d="M0 -50L39.1 -31.2L48.7 11.1L21.7 45L-21.7 45L-48.7 11.1L-39.1 -31.2Z" stroke="#0C766F" fill="none" stroke-width="5"></path></g><g transform="translate(538 19)"><path d="M0 -28L21.9 -17.5L27.3 6.2L12.1 25.2L-12.1 25.2L-27.3 6.2L-21.9 -17.5Z" stroke="#0C766F" fill="none" stroke-width="5"></path></g><g transform="translate(616 592)"><path d="M0 -55L43 -34.3L53.6 12.2L23.9 49.6L-23.9 49.6L-53.6 12.2L-43 -34.3Z" stroke="#0C766F" fill="none" stroke-width="5"></path></g><g transform="translate(188 342)"><path d="M0 -32L25 -20L31.2 7.1L13.9 28.8L-13.9 28.8L-31.2 7.1L-25 -20Z" stroke="#0C766F" fill="none" stroke-width="5"></path></g></g></svg>