<svg id="visual" viewBox="0 0 900 600" width="900" height="600" xmlns="http://www.w3.org/2000/svg" xmlns:xlink="http://www.w3.org/1999/xlink" version="1.1"><path d="M0 444L15 443.3C30 442.7 60 441.3 90 431.5C120 421.7 150 403.3 180 398.5C210 393.7 240 402.3 270 405.7C300 409 330 407 360 404.7C390 402.3 420 399.7 450 409.7C480 419.7 510 442.3 540 434.2C570 426 600 387 630 372.7C660 358.3 690 368.7 720 375.3C750 382 780 385 810 393.8C840 402.7 870 417.3 885 424.7L900 432L900 601L885 601C870 601 840 601 810 601C780 601 750 601 720 601C690 601 660 601 630 601C600 601 570 601 540 601C510 601 480 601 450 601C420 601 390 601 360 601C330 601 300 601 270 601C240 601 210 601 180 601C150 601 120 601 90 601C60 601 30 601 15 601L0 601Z" fill="#FDCF6E" stroke-linecap="round" stroke-linejoin="miter"></path></svg>