<svg id="visual" viewBox="0 0 900 600" width="900" height="600" xmlns="http://www.w3.org/2000/svg" xmlns:xlink="http://www.w3.org/1999/xlink" version="1.1"><rect x="0" y="0" width="900" height="600" fill="#fff9eb"></rect><path d="M0 105L21.5 111.7C43 118.3 86 131.7 128.8 126.8C171.7 122 214.3 99 257.2 90.2C300 81.3 343 86.7 385.8 98.3C428.7 110 471.3 128 514.2 141.7C557 155.3 600 164.7 642.8 172.2C685.7 179.7 728.3 185.3 771.2 185.8C814 186.3 857 181.7 878.5 179.3L900 177L900 0L878.5 0C857 0 814 0 771.2 0C728.3 0 685.7 0 642.8 0C600 0 557 0 514.2 0C471.3 0 428.7 0 385.8 0C343 0 300 0 257.2 0C214.3 0 171.7 0 128.8 0C86 0 43 0 21.5 0L0 0Z" fill="#086059" stroke-linecap="round" stroke-linejoin="miter"></path></svg>