<svg xmlns="http://www.w3.org/2000/svg" xmlns:xlink="http://www.w3.org/1999/xlink" width="500" zoomAndPan="magnify" viewBox="0 0 375 374.999991" height="500" preserveAspectRatio="xMidYMid meet" version="1.0"><defs><clipPath id="5cc649155a"><path d="M 258 131 L 344 131 L 344 217 L 258 217 Z M 258 131 " clip-rule="nonzero"/></clipPath><clipPath id="fe4e6c3150"><path d="M 360.378906 162.28125 L 232.59375 356.515625 L 14.546875 213.066406 L 142.332031 18.832031 Z M 360.378906 162.28125 " clip-rule="nonzero"/></clipPath><clipPath id="7ccb2e4f77"><path d="M 360.378906 162.28125 L 232.59375 356.515625 L 14.546875 213.066406 L 142.332031 18.832031 Z M 360.378906 162.28125 " clip-rule="nonzero"/></clipPath><clipPath id="09c29f0ec3"><path d="M 57 184 L 131 184 L 131 258 L 57 258 Z M 57 184 " clip-rule="nonzero"/></clipPath><clipPath id="b8ca7c1333"><path d="M 360.378906 162.28125 L 232.59375 356.515625 L 14.546875 213.066406 L 142.332031 18.832031 Z M 360.378906 162.28125 " clip-rule="nonzero"/></clipPath><clipPath id="4246285049"><path d="M 360.378906 162.28125 L 232.59375 356.515625 L 14.546875 213.066406 L 142.332031 18.832031 Z M 360.378906 162.28125 " clip-rule="nonzero"/></clipPath><clipPath id="f642fb2aa3"><path d="M 222 248 L 262 248 L 262 288 L 222 288 Z M 222 248 " clip-rule="nonzero"/></clipPath><clipPath id="493756b41f"><path d="M 360.378906 162.28125 L 232.59375 356.515625 L 14.546875 213.066406 L 142.332031 18.832031 Z M 360.378906 162.28125 " clip-rule="nonzero"/></clipPath><clipPath id="ba7aa5751b"><path d="M 360.378906 162.28125 L 232.59375 356.515625 L 14.546875 213.066406 L 142.332031 18.832031 Z M 360.378906 162.28125 " clip-rule="nonzero"/></clipPath><clipPath id="249ce23c1d"><path d="M 201 89 L 242 89 L 242 129 L 201 129 Z M 201 89 " clip-rule="nonzero"/></clipPath><clipPath id="38524b0a14"><path d="M 360.378906 162.28125 L 232.59375 356.515625 L 14.546875 213.066406 L 142.332031 18.832031 Z M 360.378906 162.28125 " clip-rule="nonzero"/></clipPath><clipPath id="90ba7f6d96"><path d="M 360.378906 162.28125 L 232.59375 356.515625 L 14.546875 213.066406 L 142.332031 18.832031 Z M 360.378906 162.28125 " clip-rule="nonzero"/></clipPath><clipPath id="dad62a063e"><path d="M 116 45 L 156 45 L 156 85 L 116 85 Z M 116 45 " clip-rule="nonzero"/></clipPath><clipPath id="1e168238d8"><path d="M 360.378906 162.28125 L 232.59375 356.515625 L 14.546875 213.066406 L 142.332031 18.832031 Z M 360.378906 162.28125 " clip-rule="nonzero"/></clipPath><clipPath id="996cc9d6b2"><path d="M 360.378906 162.28125 L 232.59375 356.515625 L 14.546875 213.066406 L 142.332031 18.832031 Z M 360.378906 162.28125 " clip-rule="nonzero"/></clipPath><clipPath id="bd34da6c0d"><path d="M 133 87 L 253 87 L 253 251 L 133 251 Z M 133 87 " clip-rule="nonzero"/></clipPath><clipPath id="999b80703b"><path d="M 360.378906 162.28125 L 232.59375 356.515625 L 14.546875 213.066406 L 142.332031 18.832031 Z M 360.378906 162.28125 " clip-rule="nonzero"/></clipPath><clipPath id="41bb28dbd1"><path d="M 360.378906 162.28125 L 232.59375 356.515625 L 14.546875 213.066406 L 142.332031 18.832031 Z M 360.378906 162.28125 " clip-rule="nonzero"/></clipPath></defs><rect x="-37.5" width="450" fill="#ffffff" y="-37.499999" height="449.999989" fill-opacity="1"/><rect x="-37.5" width="450" fill="#f5f6f3" y="-37.499999" height="449.999989" fill-opacity="1"/><g clip-path="url(#5cc649155a)"><g clip-path="url(#fe4e6c3150)"><g clip-path="url(#7ccb2e4f77)"><path fill="#fdcf6e" d="M 265.964844 150.792969 C 253.101562 170.34375 258.542969 196.714844 278.09375 209.574219 C 297.644531 222.4375 324.015625 216.996094 336.878906 197.445312 C 349.738281 177.894531 344.296875 151.527344 324.746094 138.664062 C 305.195312 125.800781 278.828125 131.242188 265.964844 150.792969 Z M 327.09375 191.007812 C 317.78125 205.164062 298.6875 209.105469 284.53125 199.792969 C 270.378906 190.480469 266.433594 171.386719 275.75 157.230469 C 285.0625 143.074219 304.152344 139.132812 318.3125 148.449219 C 332.464844 157.761719 336.40625 176.855469 327.09375 191.007812 Z M 327.09375 191.007812 " fill-opacity="1" fill-rule="nonzero"/></g></g></g><g clip-path="url(#09c29f0ec3)"><g clip-path="url(#b8ca7c1333)"><g clip-path="url(#4246285049)"><path fill="#fdcf6e" d="M 124.617188 241.316406 C 135.65625 224.539062 130.984375 201.90625 114.210938 190.871094 C 97.433594 179.832031 74.804688 184.503906 63.765625 201.28125 C 52.730469 218.058594 57.398438 240.6875 74.175781 251.726562 C 90.949219 262.761719 113.582031 258.09375 124.617188 241.316406 Z M 73.546875 207.714844 C 81.039062 196.332031 96.390625 193.164062 107.769531 200.652344 C 119.152344 208.140625 122.320312 223.492188 114.832031 234.878906 C 107.34375 246.261719 91.992188 249.429688 80.609375 241.941406 C 69.230469 234.453125 66.058594 219.101562 73.546875 207.714844 Z M 73.546875 207.714844 " fill-opacity="1" fill-rule="nonzero"/></g></g></g><g clip-path="url(#f642fb2aa3)"><g clip-path="url(#493756b41f)"><g clip-path="url(#ba7aa5751b)"><path fill="#086059" d="M 225.351562 257.535156 C 219.398438 266.585938 221.917969 278.789062 230.964844 284.742188 C 240.011719 290.695312 252.214844 288.175781 258.167969 279.128906 C 264.121094 270.082031 261.601562 257.875 252.554688 251.921875 C 243.507812 245.972656 231.304688 248.488281 225.351562 257.535156 Z M 248.386719 272.691406 C 245.980469 276.347656 241.054688 277.363281 237.398438 274.957031 C 233.746094 272.554688 232.730469 267.628906 235.132812 263.972656 C 237.539062 260.320312 242.464844 259.300781 246.117188 261.707031 C 249.773438 264.109375 250.789062 269.039062 248.386719 272.691406 Z M 248.386719 272.691406 " fill-opacity="1" fill-rule="nonzero"/></g></g></g><g clip-path="url(#249ce23c1d)"><g clip-path="url(#38524b0a14)"><g clip-path="url(#90ba7f6d96)"><path fill="#086059" d="M 210.597656 125.054688 C 219.644531 131.003906 231.847656 128.484375 237.800781 119.4375 C 243.753906 110.390625 241.238281 98.1875 232.1875 92.234375 C 223.140625 86.28125 210.9375 88.800781 204.984375 97.847656 C 199.03125 106.894531 201.550781 119.101562 210.597656 125.054688 Z M 225.753906 102.015625 C 229.402344 104.421875 230.421875 109.347656 228.019531 113.003906 C 225.613281 116.65625 220.6875 117.671875 217.035156 115.269531 C 213.378906 112.867188 212.363281 107.9375 214.765625 104.285156 C 217.171875 100.628906 222.097656 99.613281 225.753906 102.015625 Z M 225.753906 102.015625 " fill-opacity="1" fill-rule="nonzero"/></g></g></g><g clip-path="url(#dad62a063e)"><g clip-path="url(#1e168238d8)"><g clip-path="url(#996cc9d6b2)"><path fill="#086059" d="M 152.289062 76.007812 C 158.242188 66.960938 155.722656 54.753906 146.675781 48.800781 C 137.628906 42.847656 125.421875 45.367188 119.46875 54.414062 C 113.519531 63.464844 116.035156 75.667969 125.082031 81.621094 C 134.132812 87.574219 146.335938 85.054688 152.289062 76.007812 Z M 129.253906 60.851562 C 131.65625 57.199219 136.585938 56.179688 140.238281 58.585938 C 143.894531 60.988281 144.910156 65.917969 142.503906 69.570312 C 140.101562 73.226562 135.175781 74.242188 131.519531 71.835938 C 127.867188 69.433594 126.851562 64.507812 129.253906 60.851562 Z M 129.253906 60.851562 " fill-opacity="1" fill-rule="nonzero"/></g></g></g><g clip-path="url(#bd34da6c0d)"><g clip-path="url(#999b80703b)"><g clip-path="url(#41bb28dbd1)"><path fill="#0c766f" d="M 133.574219 210.25 C 134.523438 213.34375 137.796875 215.082031 140.886719 214.132812 L 162.964844 207.371094 C 164.953125 210.753906 167.699219 213.753906 171.191406 216.050781 C 179.109375 221.261719 188.804688 221.640625 196.84375 217.960938 L 220.304688 247.988281 C 222.292969 250.539062 225.972656 250.992188 228.523438 249 C 231.074219 247.003906 231.527344 243.328125 229.53125 240.78125 L 206.15625 210.863281 C 206.789062 210.105469 207.390625 209.3125 207.945312 208.46875 C 210.691406 204.292969 212.074219 199.621094 212.253906 194.953125 L 247.375 191.363281 C 250.59375 191.03125 252.933594 188.160156 252.605469 184.941406 C 252.273438 181.726562 249.398438 179.382812 246.183594 179.710938 L 210.132812 183.394531 C 208.324219 179.171875 205.386719 175.394531 201.449219 172.511719 L 214.839844 137.453125 C 215.992188 134.429688 214.476562 131.046875 211.457031 129.894531 C 208.839844 128.894531 205.957031 129.894531 204.480469 132.140625 C 204.25 132.492188 204.054688 132.871094 203.898438 133.277344 L 190.707031 167.816406 C 186.601562 167.046875 182.398438 167.277344 178.4375 168.414062 L 151.25 91.546875 C 150.175781 88.496094 146.828125 86.898438 143.777344 87.976562 C 142.527344 88.421875 141.519531 89.246094 140.839844 90.277344 C 139.867188 91.753906 139.570312 93.65625 140.207031 95.449219 L 168.050781 174.171875 C 166.398438 175.660156 164.886719 177.355469 163.605469 179.300781 C 160.1875 184.496094 158.855469 190.460938 159.375 196.222656 L 137.453125 202.9375 C 136.09375 203.351562 135 204.214844 134.277344 205.3125 C 133.355469 206.722656 133.042969 208.515625 133.574219 210.25 Z M 173.394531 185.738281 C 177.886719 178.910156 187.09375 177.007812 193.925781 181.5 C 200.753906 185.992188 202.652344 195.203125 198.160156 202.03125 C 193.667969 208.859375 184.457031 210.761719 177.628906 206.269531 C 170.800781 201.773438 168.902344 192.5625 173.394531 185.738281 Z M 173.394531 185.738281 " fill-opacity="1" fill-rule="nonzero"/></g></g></g></svg>