<svg id="visual" viewBox="0 0 900 600" width="900" height="600" xmlns="http://www.w3.org/2000/svg" xmlns:xlink="http://www.w3.org/1999/xlink" version="1.1"><path d="M0 402L21.5 401C43 400 86 398 128.8 398.5C171.7 399 214.3 402 257.2 398C300 394 343 383 385.8 375.7C428.7 368.3 471.3 364.7 514.2 367.8C557 371 600 381 642.8 380.7C685.7 380.3 728.3 369.7 771.2 364.2C814 358.7 857 358.3 878.5 358.2L900 358L900 601L878.5 601C857 601 814 601 771.2 601C728.3 601 685.7 601 642.8 601C600 601 557 601 514.2 601C471.3 601 428.7 601 385.8 601C343 601 300 601 257.2 601C214.3 601 171.7 601 128.8 601C86 601 43 601 21.5 601L0 601Z" fill="#fdcf6e"></path><path d="M0 391L21.5 398.7C43 406.3 86 421.7 128.8 433C171.7 444.3 214.3 451.7 257.2 456.5C300 461.3 343 463.7 385.8 452.2C428.7 440.7 471.3 415.3 514.2 414.2C557 413 600 436 642.8 443.8C685.7 451.7 728.3 444.3 771.2 442.7C814 441 857 445 878.5 447L900 449L900 601L878.5 601C857 601 814 601 771.2 601C728.3 601 685.7 601 642.8 601C600 601 557 601 514.2 601C471.3 601 428.7 601 385.8 601C343 601 300 601 257.2 601C214.3 601 171.7 601 128.8 601C86 601 43 601 21.5 601L0 601Z" fill="#b2ba60"></path><path d="M0 471L21.5 465.3C43 459.7 86 448.3 128.8 443.5C171.7 438.7 214.3 440.3 257.2 449C300 457.7 343 473.3 385.8 477.2C428.7 481 471.3 473 514.2 466.5C557 460 600 455 642.8 459.7C685.7 464.3 728.3 478.7 771.2 487C814 495.3 857 497.7 878.5 498.8L900 500L900 601L878.5 601C857 601 814 601 771.2 601C728.3 601 685.7 601 642.8 601C600 601 557 601 514.2 601C471.3 601 428.7 601 385.8 601C343 601 300 601 257.2 601C214.3 601 171.7 601 128.8 601C86 601 43 601 21.5 601L0 601Z" fill="#709f60"></path><path d="M0 483L21.5 491.8C43 500.7 86 518.3 128.8 521.5C171.7 524.7 214.3 513.3 257.2 513.8C300 514.3 343 526.7 385.8 531.7C428.7 536.7 471.3 534.3 514.2 524.5C557 514.7 600 497.3 642.8 496.2C685.7 495 728.3 510 771.2 514.5C814 519 857 513 878.5 510L900 507L900 601L878.5 601C857 601 814 601 771.2 601C728.3 601 685.7 601 642.8 601C600 601 557 601 514.2 601C471.3 601 428.7 601 385.8 601C343 601 300 601 257.2 601C214.3 601 171.7 601 128.8 601C86 601 43 601 21.5 601L0 601Z" fill="#388060"></path><path d="M0 552L21.5 553.5C43 555 86 558 128.8 560.7C171.7 563.3 214.3 565.7 257.2 565C300 564.3 343 560.7 385.8 557C428.7 553.3 471.3 549.7 514.2 548.3C557 547 600 548 642.8 552C685.7 556 728.3 563 771.2 565.8C814 568.7 857 567.3 878.5 566.7L900 566L900 601L878.5 601C857 601 814 601 771.2 601C728.3 601 685.7 601 642.8 601C600 601 557 601 514.2 601C471.3 601 428.7 601 385.8 601C343 601 300 601 257.2 601C214.3 601 171.7 601 128.8 601C86 601 43 601 21.5 601L0 601Z" fill="#086059"></path></svg>