<svg id="visual" viewBox="0 0 900 600" width="900" height="600" xmlns="http://www.w3.org/2000/svg" xmlns:xlink="http://www.w3.org/1999/xlink" version="1.1"><path d="M0 378L25 382.7C50 387.3 100 396.7 150 399.7C200 402.7 250 399.3 300 395.8C350 392.3 400 388.7 450 407.5C500 426.3 550 467.7 600 466.2C650 464.7 700 420.3 750 401C800 381.7 850 387.3 875 390.2L900 393L900 601L875 601C850 601 800 601 750 601C700 601 650 601 600 601C550 601 500 601 450 601C400 601 350 601 300 601C250 601 200 601 150 601C100 601 50 601 25 601L0 601Z" fill="#FFFCF1" stroke-linecap="round" stroke-linejoin="miter"></path></svg>